<?xml version="1.0" standalone="no"?>
<!DOCTYPE svg PUBLIC "-//W3C//DTD SVG 20010904//EN"
 "http://www.w3.org/TR/2001/REC-SVG-20010904/DTD/svg10.dtd">
<svg version="1.0" xmlns="http://www.w3.org/2000/svg"
 width="1536.000000pt" height="1024.000000pt" viewBox="0 0 1536.000000 1024.000000"
 preserveAspectRatio="xMidYMid meet">

<g transform="translate(0.000000,1024.000000) scale(0.100000,-0.100000)"
fill="#000000" stroke="none">
<path d="M7460 8583 c-261 -25 -390 -47 -585 -98 -676 -177 -1241 -530 -1672
-1045 -407 -486 -641 -1051 -694 -1679 -14 -173 -7 -495 16 -660 87 -636 349
-1196 783 -1677 323 -358 807 -683 1310 -879 375 -146 728 -211 1177 -219 730
-13 1310 143 1885 507 326 207 601 463 807 752 312 438 493 904 543 1404 15
152 12 505 -5 656 -56 485 -212 948 -465 1375 -398 673 -1059 1189 -1830 1429
-214 66 -425 107 -675 131 -100 9 -511 12 -595 3z m583 -20 c-7 -2 -21 -2 -30
0 -10 3 -4 5 12 5 17 0 24 -2 18 -5z m170 -20 c-7 -2 -19 -2 -25 0 -7 3 -2 5
12 5 14 0 19 -2 13 -5z m-138 -144 c647 -61 1222 -310 1727 -746 342 -296 606
-658 791 -1083 131 -301 201 -558 248 -910 17 -121 17 -532 1 -665 -83 -677
-417 -1314 -916 -1743 -461 -398 -961 -628 -1559 -718 -211 -32 -568 -43 -778
-25 -515 45 -988 199 -1443 470 -221 133 -398 271 -592 465 -246 247 -398 455
-542 742 -225 452 -316 828 -315 1309 1 374 50 657 175 1005 69 193 253 529
386 705 228 300 529 569 846 754 404 237 846 386 1293 435 216 25 456 26 678
5z m-2565 -663 c0 -2 -8 -10 -17 -17 -16 -13 -17 -12 -4 4 13 16 21 21 21 13z
m-110 -110 c0 -2 -8 -10 -17 -17 -16 -13 -17 -12 -4 4 13 16 21 21 21 13z
m-70 -70 c0 -2 -8 -10 -17 -17 -16 -13 -17 -12 -4 4 13 16 21 21 21 13z m-613
-988 c-3 -8 -6 -5 -6 6 -1 11 2 17 5 13 3 -3 4 -12 1 -19z m6190 -410 c-3 -8
-6 -5 -6 6 -1 11 2 17 5 13 3 -3 4 -12 1 -19z m-6180 -120 c-3 -8 -6 -5 -6 6
-1 11 2 17 5 13 3 -3 4 -12 1 -19z m-170 -60 c-3 -7 -5 -2 -5 12 0 14 2 19 5
13 2 -7 2 -19 0 -25z m6400 -20 c-3 -8 -6 -5 -6 6 -1 11 2 17 5 13 3 -3 4 -12
1 -19z m30 -160 c-3 -8 -6 -5 -6 6 -1 11 2 17 5 13 3 -3 4 -12 1 -19z m20
-150 c-3 -8 -6 -5 -6 6 -1 11 2 17 5 13 3 -3 4 -12 1 -19z m-130 -230 c-2 -13
-4 -5 -4 17 -1 22 1 32 4 23 2 -10 2 -28 0 -40z m150 -155 c-2 -27 -3 -5 -3
47 0 52 1 74 3 48 2 -27 2 -69 0 -95z m-6500 25 c-3 -7 -5 -2 -5 12 0 14 2 19
5 13 2 -7 2 -19 0 -25z m10 -110 c-3 -8 -6 -5 -6 6 -1 11 2 17 5 13 3 -3 4
-12 1 -19z m6490 -10 c-3 -7 -5 -2 -5 12 0 14 2 19 5 13 2 -7 2 -19 0 -25z
m-150 -20 c-3 -7 -5 -2 -5 12 0 14 2 19 5 13 2 -7 2 -19 0 -25z m-6330 -70
c-3 -8 -6 -5 -6 6 -1 11 2 17 5 13 3 -3 4 -12 1 -19z m160 -20 c-3 -8 -6 -5
-6 6 -1 11 2 17 5 13 3 -3 4 -12 1 -19z m-150 -35 c-3 -10 -5 -4 -5 12 0 17 2
24 5 18 2 -7 2 -21 0 -30z m170 -85 c-3 -7 -5 -2 -5 12 0 14 2 19 5 13 2 -7 2
-19 0 -25z m6280 -10 c-3 -8 -6 -5 -6 6 -1 11 2 17 5 13 3 -3 4 -12 1 -19z
m-6430 -20 c-3 -8 -6 -5 -6 6 -1 11 2 17 5 13 3 -3 4 -12 1 -19z m6420 -60
c-3 -7 -5 -2 -5 12 0 14 2 19 5 13 2 -7 2 -19 0 -25z m-10 -50 c-3 -8 -6 -5
-6 6 -1 11 2 17 5 13 3 -3 4 -12 1 -19z m-6093 -394 c3 -8 2 -12 -4 -9 -6 3
-10 10 -10 16 0 14 7 11 14 -7z m-134 -89 c0 -5 -5 -3 -10 5 -5 8 -10 20 -10
25 0 6 5 3 10 -5 5 -8 10 -19 10 -25z m5490 -999 c0 -2 -8 -10 -17 -17 -16
-13 -17 -12 -4 4 13 16 21 21 21 13z m-40 -39 c0 -2 -12 -14 -27 -28 l-28 -24
24 28 c23 25 31 32 31 24z m-4425 -67 c3 -6 -1 -7 -9 -4 -18 7 -21 14 -7 14 6
0 13 -4 16 -10z m4305 -43 c0 -2 -10 -12 -22 -23 l-23 -19 19 23 c18 21 26 27
26 19z m-260 -211 c0 -2 -8 -10 -17 -17 -16 -13 -17 -12 -4 4 13 16 21 21 21
13z m-3560 -66 c8 -5 11 -10 5 -10 -5 0 -17 5 -25 10 -8 5 -10 10 -5 10 6 0
17 -5 25 -10z m45 -28 c-3 -3 -11 0 -18 7 -9 10 -8 11 6 5 10 -3 15 -9 12 -12z
m115 -52 c8 -5 11 -10 5 -10 -5 0 -17 5 -25 10 -8 5 -10 10 -5 10 6 0 17 -5
25 -10z m391 -168 c-7 -2 -18 1 -23 6 -8 8 -4 9 13 5 13 -4 18 -8 10 -11z
m1616 -118 c-3 -3 -12 -4 -19 -1 -8 3 -5 6 6 6 11 1 17 -2 13 -5z m-789 -41
c-10 -2 -26 -2 -35 0 -10 3 -2 5 17 5 19 0 27 -2 18 -5z m979 -69 c-3 -3 -12
-4 -19 -1 -8 3 -5 6 6 6 11 1 17 -2 13 -5z m-100 -20 c-3 -3 -12 -4 -19 -1 -8
3 -5 6 6 6 11 1 17 -2 13 -5z m-1164 -21 c-7 -2 -21 -2 -30 0 -10 3 -4 5 12 5
17 0 24 -2 18 -5z m200 -20 c-7 -2 -21 -2 -30 0 -10 3 -4 5 12 5 17 0 24 -2
18 -5z m190 -10 c-7 -2 -21 -2 -30 0 -10 3 -4 5 12 5 17 0 24 -2 18 -5z m290
0 c-7 -2 -21 -2 -30 0 -10 3 -4 5 12 5 17 0 24 -2 18 -5z m64 1 c-3 -3 -12 -4
-19 -1 -8 3 -5 6 6 6 11 1 17 -2 13 -5z"/>
<path d="M7380 8240 c-277 -38 -544 -109 -773 -204 -1095 -454 -1775 -1483
-1734 -2621 10 -262 42 -457 114 -694 159 -527 507 -1026 958 -1373 461 -355
966 -568 1512 -638 276 -36 723 -24 993 26 658 120 1304 500 1709 1004 302
375 473 786 536 1289 23 179 16 545 -13 736 -95 615 -377 1184 -801 1618 -453
464 -990 744 -1627 848 -190 31 -680 36 -874 9z m885 -208 c405 -74 718 -199
1045 -417 184 -122 271 -194 431 -355 363 -366 625 -851 728 -1348 48 -233 66
-597 40 -830 -54 -492 -284 -966 -649 -1332 -362 -365 -867 -634 -1388 -740
-263 -53 -579 -73 -827 -51 -1004 88 -1847 657 -2293 1549 -155 311 -225 593
-239 962 -25 691 232 1331 728 1817 177 173 356 307 587 437 276 156 657 277
1012 321 177 22 678 14 825 -13z"/>
<path d="M7460 7893 c-527 -84 -956 -273 -1330 -586 -419 -351 -689 -794 -787
-1295 -25 -128 -27 -155 -27 -412 -1 -292 3 -323 59 -571 81 -350 265 -711
511 -999 337 -395 656 -614 1120 -771 267 -90 487 -128 790 -136 439 -12 755
47 1143 213 140 59 355 177 359 197 2 8 -26 45 -61 83 -35 38 -97 107 -137
153 -325 371 -964 1047 -999 1056 -33 8 -257 -4 -298 -16 -33 -10 -280 -270
-703 -739 -107 -118 -228 -251 -269 -295 -116 -124 -173 -196 -167 -211 11
-28 -17 -25 -89 10 -85 40 -205 128 -283 209 -50 51 -53 56 -41 78 16 31 152
216 569 774 185 248 345 462 354 478 22 32 19 50 -25 189 -19 59 -40 107 -55
122 -51 50 -743 327 -1334 533 -241 83 -234 79 -227 157 6 65 39 176 81 269
29 67 35 68 155 37 224 -59 1334 -334 1382 -343 30 -6 66 -7 80 -4 25 6 208
124 262 169 l29 24 9 309 c12 421 37 992 50 1148 14 175 4 190 -121 170z m-75
-160 c-10 -26 -34 -163 -35 -199 0 -41 -12 -49 -92 -63 -149 -25 -446 -136
-581 -217 -256 -153 -468 -343 -632 -564 -47 -63 -96 -128 -108 -143 l-22 -28
-70 16 c-99 23 -105 25 -105 39 0 23 125 222 207 329 186 243 482 489 743 618
228 112 558 225 669 228 28 1 32 -2 26 -16z m75 -523 c-12 -178 -28 -481 -37
-655 -6 -134 -7 -141 -32 -165 -39 -37 -217 -163 -246 -174 -26 -10 -11 -14
-690 157 -187 47 -353 88 -369 92 -59 13 -15 15 95 5 190 -17 315 -39 696
-121 l232 -51 115 86 c75 55 117 94 120 108 3 13 12 100 21 193 8 94 24 225
35 290 10 66 26 167 35 225 31 198 36 201 25 10z m-1859 -1401 l90 -62 -7
-126 c-24 -467 160 -956 490 -1299 l51 -53 -60 -119 c-33 -65 -63 -119 -67
-120 -10 0 -165 176 -222 251 -279 371 -425 863 -414 1392 2 100 7 188 12 195
11 18 22 12 127 -59z m426 35 c-3 -3 -12 -4 -19 -1 -8 3 -5 6 6 6 11 1 17 -2
13 -5z m312 -216 c251 -96 561 -237 603 -274 10 -10 18 -24 18 -33 0 -9 12
-64 27 -122 l27 -107 -29 -43 c-88 -127 -537 -710 -543 -704 -11 10 211 376
391 645 65 96 66 105 34 225 l-22 80 -120 63 c-66 35 -187 95 -270 134 -212
99 -526 254 -550 272 -32 24 233 -59 434 -136z m1857 -1060 c106 -109 332
-353 420 -453 103 -117 289 -348 276 -344 -12 4 -370 343 -627 594 l-170 165
-145 -6 -145 -6 -290 -288 c-269 -267 -485 -470 -485 -456 0 11 255 317 346
416 292 318 400 433 418 446 15 11 57 14 171 14 l150 0 81 -82z m-1018 -933
c128 -49 279 -91 418 -116 95 -17 159 -22 319 -22 286 0 467 30 735 124 l115
40 85 -31 c47 -17 113 -41 148 -53 34 -11 62 -24 62 -27 -1 -3 -38 -23 -83
-44 -280 -135 -442 -188 -732 -238 -112 -19 -166 -22 -390 -22 -254 0 -264 1
-412 32 -83 17 -200 48 -259 67 -93 32 -148 54 -326 133 -21 10 -37 21 -35 25
2 8 246 164 258 166 4 1 48 -15 97 -34z"/>
<path d="M6754 7454 c-18 -14 -18 -15 4 -4 12 6 22 13 22 15 0 8 -5 6 -26 -11z"/>
<path d="M6658 7404 c-38 -20 -36 -28 2 -9 17 9 30 18 30 20 0 7 -1 6 -32 -11z"/>
<path d="M6583 7359 c-35 -22 -46 -37 -15 -20 22 13 58 40 52 41 -3 0 -20 -10
-37 -21z"/>
<path d="M6505 7304 l-30 -26 33 22 c17 12 32 23 32 26 0 7 -4 5 -35 -22z"/>
<path d="M6419 7243 c-13 -16 -12 -17 4 -4 9 7 17 15 17 17 0 8 -8 3 -21 -13z"/>
<path d="M6369 7203 c-13 -16 -12 -17 4 -4 9 7 17 15 17 17 0 8 -8 3 -21 -13z"/>
<path d="M6309 7153 l-24 -28 28 24 c15 14 27 26 27 28 0 8 -8 1 -31 -24z"/>
<path d="M6180 7033 l-95 -98 98 95 c90 88 102 100 94 100 -1 0 -45 -44 -97
-97z"/>
<path d="M5543 5455 c0 -27 2 -38 4 -22 2 15 2 37 0 50 -2 12 -4 0 -4 -28z"/>
<path d="M5552 5350 c0 -19 2 -27 5 -17 2 9 2 25 0 35 -3 9 -5 1 -5 -18z"/>
<path d="M5562 5285 c0 -16 2 -22 5 -12 2 9 2 23 0 30 -3 6 -5 -1 -5 -18z"/>
<path d="M5571 5224 c1 -16 5 -40 9 -54 6 -17 7 -9 3 25 -6 56 -14 74 -12 29z"/>
<path d="M5592 5120 c0 -14 2 -19 5 -12 2 6 2 18 0 25 -3 6 -5 1 -5 -13z"/>
<path d="M5601 5074 c0 -11 3 -14 6 -6 3 7 2 16 -1 19 -3 4 -6 -2 -5 -13z"/>
<path d="M5611 5034 c0 -11 3 -14 6 -6 3 7 2 16 -1 19 -3 4 -6 -2 -5 -13z"/>
<path d="M5621 5000 c0 -8 4 -24 9 -35 5 -13 9 -14 9 -5 0 8 -4 24 -9 35 -5
13 -9 14 -9 5z"/>
<path d="M5641 4930 c0 -8 6 -28 14 -45 17 -39 18 -21 0 25 -7 19 -14 28 -14
20z"/>
<path d="M5700 4765 c0 -5 5 -17 10 -25 5 -8 10 -10 10 -5 0 6 -5 17 -10 25
-5 8 -10 11 -10 5z"/>
<path d="M5730 4695 c0 -5 5 -17 10 -25 5 -8 10 -10 10 -5 0 6 -5 17 -10 25
-5 8 -10 11 -10 5z"/>
<path d="M5775 4600 c14 -27 28 -50 30 -50 3 0 -6 23 -20 50 -14 28 -28 50
-30 50 -3 0 6 -22 20 -50z"/>
<path d="M5819 4525 c5 -11 17 -29 26 -40 l16 -20 -10 20 c-5 11 -17 29 -26
40 l-16 20 10 -20z"/>
<path d="M5900 4396 c0 -2 8 -10 18 -17 15 -13 16 -12 3 4 -13 16 -21 21 -21
13z"/>
<path d="M5950 4330 c11 -16 26 -33 32 -36 7 -4 -1 9 -16 29 -34 44 -46 50
-16 7z"/>
<path d="M6020 4245 c19 -19 36 -35 39 -35 3 0 -10 16 -29 35 -19 19 -36 35
-39 35 -3 0 10 -16 29 -35z"/>
<path d="M8040 7885 c-11 -14 -9 -76 19 -433 18 -229 43 -565 56 -747 14 -181
29 -347 35 -367 14 -48 46 -73 204 -153 82 -42 138 -65 160 -65 18 0 157 32
307 70 151 39 339 86 419 106 80 19 271 66 425 104 154 38 308 73 343 79 69
11 82 16 82 35 0 23 -172 300 -258 415 -315 421 -832 770 -1328 895 -104 26
-288 60 -389 71 -50 6 -63 4 -75 -10z m240 -135 c577 -69 1190 -475 1563
-1036 37 -56 67 -105 67 -111 0 -13 -114 -38 -129 -29 -6 4 -32 39 -57 79 -97
149 -191 259 -339 395 -320 295 -671 482 -1060 567 -161 34 -161 34 -173 92
-12 53 -8 66 16 59 10 -3 60 -10 112 -16z m-56 -510 c37 -221 64 -410 84 -584
l17 -151 158 -82 158 -83 137 35 c315 79 637 144 802 160 36 4 73 9 83 11 9 3
17 1 17 -3 0 -10 -5 -12 -350 -102 -146 -39 -368 -100 -495 -135 l-229 -66
-36 19 c-130 70 -271 148 -289 161 -19 14 -23 31 -36 200 -8 102 -19 230 -25
285 -11 114 -41 518 -39 537 2 25 18 -49 43 -202z m-67 -812 c-3 -8 -6 -5 -6
6 -1 11 2 17 5 13 3 -3 4 -12 1 -19z"/>
<path d="M7795 6423 c-47 -25 -72 -51 -93 -101 -58 -137 -22 -300 78 -353 39
-21 129 -25 163 -8 97 50 135 154 103 280 -40 156 -149 236 -251 182z m151
-207 c29 -29 34 -41 34 -80 0 -64 -38 -106 -101 -113 -41 -5 -50 -2 -79 24
-27 24 -33 38 -38 81 -4 49 -2 54 31 87 29 29 42 35 77 35 34 0 48 -6 76 -34z"/>
<path d="M10170 6099 c-51 -23 -206 -86 -720 -294 -724 -293 -742 -301 -764
-344 -21 -39 -51 -220 -43 -252 8 -29 976 -1324 1013 -1355 28 -23 73 -3 131
60 286 308 467 671 534 1071 26 154 35 447 20 615 -24 263 -83 521 -119 520
-4 0 -27 -10 -52 -21z m57 -5 c-3 -3 -12 -4 -19 -1 -8 3 -5 6 6 6 11 1 17 -2
13 -5z m-52 -324 c23 -154 31 -454 16 -605 -41 -425 -201 -795 -468 -1084
l-58 -64 -26 34 c-40 53 -119 182 -119 195 0 7 21 36 46 66 228 263 364 627
389 1038 5 94 -6 282 -21 350 -5 22 3 32 58 73 35 26 83 65 108 86 25 22 48
37 51 33 4 -4 15 -59 24 -122z m-470 17 c-100 -55 -301 -164 -460 -250 -302
-161 -272 -140 -285 -205 -6 -31 -16 -73 -21 -92 -19 -72 -13 -88 93 -249 118
-182 359 -566 388 -619 11 -20 27 -47 36 -59 9 -13 12 -23 7 -23 -10 0 -139
161 -264 330 -104 140 -373 511 -381 525 -10 16 46 273 62 290 23 22 458 226
620 289 80 32 165 66 190 76 72 29 80 22 15 -13z m622 -239 c-3 -7 -5 -2 -5
12 0 14 2 19 5 13 2 -7 2 -19 0 -25z"/>
<path d="M10061 5794 c0 -11 3 -14 6 -6 3 7 2 16 -1 19 -3 4 -6 -2 -5 -13z"/>
<path d="M10072 5730 c0 -19 2 -27 5 -17 2 9 2 25 0 35 -3 9 -5 1 -5 -18z"/>
<path d="M10083 5645 c0 -22 2 -30 4 -17 2 12 2 30 0 40 -3 9 -5 -1 -4 -23z"/>
<path d="M10093 5485 c0 -44 2 -61 4 -37 2 23 2 59 0 80 -2 20 -4 1 -4 -43z"/>
<path d="M10093 5335 c0 -38 2 -53 4 -32 2 20 2 52 0 70 -2 17 -4 1 -4 -38z"/>
<path d="M10083 5205 c0 -27 2 -38 4 -22 2 15 2 37 0 50 -2 12 -4 0 -4 -28z"/>
<path d="M10066 5099 c-4 -28 -5 -53 -3 -56 3 -2 8 19 12 47 4 28 5 53 2 56
-2 3 -7 -19 -11 -47z"/>
<path d="M10051 5014 c0 -11 3 -14 6 -6 3 7 2 16 -1 19 -3 4 -6 -2 -5 -13z"/>
<path d="M10032 4938 c-7 -28 -11 -53 -8 -55 2 -2 9 19 16 47 7 28 10 53 8 55
-3 3 -10 -18 -16 -47z"/>
<path d="M9991 4803 c-1 -6 -4 -20 -7 -30 -5 -17 -5 -17 6 0 6 10 9 23 6 30
-3 9 -5 9 -5 0z"/>
<path d="M9952 4695 c-17 -37 -14 -45 4 -12 9 16 14 31 11 33 -2 2 -9 -7 -15
-21z"/>
<path d="M9902 4585 c-12 -25 -20 -45 -17 -45 7 0 47 81 43 86 -3 2 -14 -17
-26 -41z"/>
<path d="M9845 4479 c-4 -6 -5 -12 -2 -15 2 -3 7 2 10 11 7 17 1 20 -8 4z"/>
<path d="M8431 5983 c-58 -21 -136 -98 -150 -149 -23 -81 -3 -173 45 -216 32
-28 90 -48 139 -48 94 0 216 65 252 134 40 77 8 208 -65 264 -29 22 -46 27
-106 29 -46 2 -87 -3 -115 -14z m57 -124 c70 -24 88 -125 33 -180 -32 -32 -79
-38 -126 -17 -54 25 -73 113 -34 162 34 44 72 54 127 35z"/>
<path d="M7135 5936 c-44 -20 -83 -63 -96 -106 -24 -79 47 -199 147 -250 40
-21 63 -25 131 -25 74 0 85 3 125 30 53 38 78 85 78 151 0 77 -40 133 -126
175 -58 29 -81 34 -149 37 -52 1 -91 -3 -110 -12z m286 -135 c43 -43 41 -101
-5 -147 -29 -29 -41 -34 -81 -34 -40 0 -52 5 -81 34 -26 26 -34 42 -34 71 0
29 8 45 34 71 30 30 40 34 86 34 44 0 56 -4 81 -29z"/>
<path d="M7771 5880 c-29 -11 -60 -25 -70 -32 -49 -37 -96 -89 -119 -133 -23
-44 -27 -62 -27 -145 0 -88 3 -101 33 -162 61 -125 161 -183 317 -182 110 1
162 21 239 94 124 118 137 295 32 439 -87 118 -265 171 -405 121z m208 -66
c105 -31 191 -144 191 -250 0 -153 -115 -268 -269 -268 -184 0 -323 182 -267
350 47 142 194 213 345 168z"/>
<path d="M8178 5270 c-94 -50 -124 -161 -74 -265 66 -133 219 -190 336 -124
56 32 80 75 80 145 0 51 -5 69 -35 120 -61 103 -127 145 -226 144 -24 -1 -61
-10 -81 -20z m154 -62 c27 -13 48 -62 48 -111 0 -39 -5 -49 -35 -76 -100 -87
-241 31 -180 149 9 17 17 30 18 30 1 0 20 7 42 14 39 14 72 12 107 -6z"/>
<path d="M7525 5251 c-82 -21 -141 -79 -175 -169 -26 -68 -25 -98 3 -152 39
-78 153 -118 257 -90 96 26 183 162 165 258 -21 112 -137 183 -250 153z m151
-105 c29 -29 34 -41 34 -81 0 -40 -5 -52 -34 -81 -26 -26 -42 -34 -69 -34 -53
0 -85 16 -107 52 -24 39 -25 78 -5 118 21 42 53 60 103 60 37 0 50 -6 78 -34z
m-31 -276 c-3 -5 -12 -10 -18 -10 -7 0 -6 4 3 10 19 12 23 12 15 0z"/>
</g>
</svg>
